<mxfile host="app.diagrams.net" modified="2024-05-13T18:36:08.157Z" agent="Mozilla/5.0 (Macintosh; Intel Mac OS X 10_15_7) AppleWebKit/537.36 (KHTML, like Gecko) Chrome/124.0.0.0 Safari/537.36" etag="WyklMJ6J688rzMOvHZL2" version="24.1.0" type="github">
  <diagram id="C5RBs43oDa-KdzZeNtuy" name="Page-1">
    <mxGraphModel dx="967" dy="728" grid="1" gridSize="10" guides="1" tooltips="1" connect="1" arrows="1" fold="1" page="1" pageScale="1" pageWidth="827" pageHeight="1169" math="0" shadow="0">
      <root>
        <mxCell id="WIyWlLk6GJQsqaUBKTNV-0" />
        <mxCell id="WIyWlLk6GJQsqaUBKTNV-1" parent="WIyWlLk6GJQsqaUBKTNV-0" />
        <mxCell id="i_ETFETUrERWIoAMZTEW-4" value="main" style="swimlane;fontStyle=1;align=center;verticalAlign=top;childLayout=stackLayout;horizontal=1;startSize=26;horizontalStack=0;resizeParent=1;resizeParentMax=0;resizeLast=0;collapsible=1;marginBottom=0;whiteSpace=wrap;html=1;" vertex="1" parent="WIyWlLk6GJQsqaUBKTNV-1">
          <mxGeometry x="330" y="315" width="210" height="270" as="geometry" />
        </mxCell>
        <mxCell id="i_ETFETUrERWIoAMZTEW-5" value="+ running: boolean&lt;div&gt;+ playing: boolean&lt;/div&gt;" style="text;strokeColor=none;fillColor=none;align=left;verticalAlign=top;spacingLeft=4;spacingRight=4;overflow=hidden;rotatable=0;points=[[0,0.5],[1,0.5]];portConstraint=eastwest;whiteSpace=wrap;html=1;" vertex="1" parent="i_ETFETUrERWIoAMZTEW-4">
          <mxGeometry y="26" width="210" height="44" as="geometry" />
        </mxCell>
        <mxCell id="i_ETFETUrERWIoAMZTEW-6" value="" style="line;strokeWidth=1;fillColor=none;align=left;verticalAlign=middle;spacingTop=-1;spacingLeft=3;spacingRight=3;rotatable=0;labelPosition=right;points=[];portConstraint=eastwest;strokeColor=inherit;" vertex="1" parent="i_ETFETUrERWIoAMZTEW-4">
          <mxGeometry y="70" width="210" height="8" as="geometry" />
        </mxCell>
        <mxCell id="i_ETFETUrERWIoAMZTEW-7" value="+ __init__ (self)&lt;br&gt;+ main (self)&lt;div&gt;+ draw (self)&lt;/div&gt;&lt;div&gt;+ update (self)&lt;/div&gt;&lt;div&gt;+ start_screen (self, map_key)&lt;/div&gt;&lt;div&gt;+ game_over (self)&lt;/div&gt;&lt;div&gt;+ new (self, map)&lt;/div&gt;&lt;div&gt;+ events (self)&lt;/div&gt;&lt;div&gt;+ createMap (self, map_key)&lt;/div&gt;&lt;div&gt;+ changeMap (self, map_key)&lt;/div&gt;" style="text;strokeColor=none;fillColor=none;align=left;verticalAlign=top;spacingLeft=4;spacingRight=4;overflow=hidden;rotatable=0;points=[[0,0.5],[1,0.5]];portConstraint=eastwest;whiteSpace=wrap;html=1;" vertex="1" parent="i_ETFETUrERWIoAMZTEW-4">
          <mxGeometry y="78" width="210" height="192" as="geometry" />
        </mxCell>
        <mxCell id="i_ETFETUrERWIoAMZTEW-8" value="characters" style="swimlane;fontStyle=1;align=center;verticalAlign=top;childLayout=stackLayout;horizontal=1;startSize=26;horizontalStack=0;resizeParent=1;resizeParentMax=0;resizeLast=0;collapsible=1;marginBottom=0;whiteSpace=wrap;html=1;" vertex="1" parent="WIyWlLk6GJQsqaUBKTNV-1">
          <mxGeometry x="50" y="380" width="190" height="190" as="geometry" />
        </mxCell>
        <mxCell id="i_ETFETUrERWIoAMZTEW-9" value="+ layer: int&lt;div&gt;+ x: int&lt;br&gt;+ y: int&lt;br&gt;+ width: int&lt;br&gt;+ height: int&lt;/div&gt;" style="text;strokeColor=none;fillColor=none;align=left;verticalAlign=top;spacingLeft=4;spacingRight=4;overflow=hidden;rotatable=0;points=[[0,0.5],[1,0.5]];portConstraint=eastwest;whiteSpace=wrap;html=1;" vertex="1" parent="i_ETFETUrERWIoAMZTEW-8">
          <mxGeometry y="26" width="190" height="84" as="geometry" />
        </mxCell>
        <mxCell id="i_ETFETUrERWIoAMZTEW-10" value="" style="line;strokeWidth=1;fillColor=none;align=left;verticalAlign=middle;spacingTop=-1;spacingLeft=3;spacingRight=3;rotatable=0;labelPosition=right;points=[];portConstraint=eastwest;strokeColor=inherit;" vertex="1" parent="i_ETFETUrERWIoAMZTEW-8">
          <mxGeometry y="110" width="190" height="8" as="geometry" />
        </mxCell>
        <mxCell id="i_ETFETUrERWIoAMZTEW-11" value="+ __init__ (self, game, x, y)&lt;div&gt;+ update(self)&lt;/div&gt;&lt;div&gt;+ movement (self)&lt;/div&gt;&lt;div&gt;+ collision (self, direction)&lt;/div&gt;" style="text;strokeColor=none;fillColor=none;align=left;verticalAlign=top;spacingLeft=4;spacingRight=4;overflow=hidden;rotatable=0;points=[[0,0.5],[1,0.5]];portConstraint=eastwest;whiteSpace=wrap;html=1;" vertex="1" parent="i_ETFETUrERWIoAMZTEW-8">
          <mxGeometry y="118" width="190" height="72" as="geometry" />
        </mxCell>
        <mxCell id="i_ETFETUrERWIoAMZTEW-15" value="config" style="swimlane;fontStyle=1;align=center;verticalAlign=top;childLayout=stackLayout;horizontal=1;startSize=26;horizontalStack=0;resizeParent=1;resizeParentMax=0;resizeLast=0;collapsible=1;marginBottom=0;whiteSpace=wrap;html=1;" vertex="1" parent="WIyWlLk6GJQsqaUBKTNV-1">
          <mxGeometry x="600" y="400" width="180" height="70" as="geometry" />
        </mxCell>
        <mxCell id="i_ETFETUrERWIoAMZTEW-16" value="using this to store all variables, maps, game info, etc." style="text;strokeColor=none;fillColor=none;align=left;verticalAlign=top;spacingLeft=4;spacingRight=4;overflow=hidden;rotatable=0;points=[[0,0.5],[1,0.5]];portConstraint=eastwest;whiteSpace=wrap;html=1;" vertex="1" parent="i_ETFETUrERWIoAMZTEW-15">
          <mxGeometry y="26" width="180" height="44" as="geometry" />
        </mxCell>
        <mxCell id="i_ETFETUrERWIoAMZTEW-19" style="edgeStyle=orthogonalEdgeStyle;rounded=0;orthogonalLoop=1;jettySize=auto;html=1;entryX=1.019;entryY=0.289;entryDx=0;entryDy=0;entryPerimeter=0;" edge="1" parent="WIyWlLk6GJQsqaUBKTNV-1" source="i_ETFETUrERWIoAMZTEW-16" target="i_ETFETUrERWIoAMZTEW-7">
          <mxGeometry relative="1" as="geometry" />
        </mxCell>
        <mxCell id="i_ETFETUrERWIoAMZTEW-21" style="edgeStyle=orthogonalEdgeStyle;rounded=0;orthogonalLoop=1;jettySize=auto;html=1;entryX=0;entryY=0.286;entryDx=0;entryDy=0;entryPerimeter=0;" edge="1" parent="WIyWlLk6GJQsqaUBKTNV-1" source="i_ETFETUrERWIoAMZTEW-9" target="i_ETFETUrERWIoAMZTEW-7">
          <mxGeometry relative="1" as="geometry" />
        </mxCell>
        <mxCell id="i_ETFETUrERWIoAMZTEW-22" style="edgeStyle=orthogonalEdgeStyle;rounded=0;orthogonalLoop=1;jettySize=auto;html=1;entryX=0.474;entryY=0.993;entryDx=0;entryDy=0;entryPerimeter=0;" edge="1" parent="WIyWlLk6GJQsqaUBKTNV-1" source="i_ETFETUrERWIoAMZTEW-15" target="i_ETFETUrERWIoAMZTEW-11">
          <mxGeometry relative="1" as="geometry">
            <Array as="points">
              <mxPoint x="690" y="620" />
              <mxPoint x="140" y="620" />
            </Array>
          </mxGeometry>
        </mxCell>
      </root>
    </mxGraphModel>
  </diagram>
</mxfile>
